<?xml version="1.0" standalone="no"?>
<!DOCTYPE svg PUBLIC "-//W3C//DTD SVG 20010904//EN"
 "http://www.w3.org/TR/2001/REC-SVG-20010904/DTD/svg10.dtd">
<svg version="1.0" xmlns="http://www.w3.org/2000/svg"
 width="64.000000pt" height="64.000000pt" viewBox="0 0 64.000000 64.000000"
 preserveAspectRatio="xMidYMid meet">
<metadata>
Created by potrace 1.16, written by Peter Selinger 2001-2019
</metadata>
<g transform="translate(0.000000,64.000000) scale(0.100000,-0.100000)"
fill="#000000" stroke="none">
<path d="M110 563 c-15 -20 -21 -40 -20 -73 1 -25 1 -107 1 -182 l-1 -138 -45
0 c-44 0 -45 -1 -45 -31 0 -20 10 -40 29 -60 l29 -29 162 0 c167 0 210 9 224
45 3 9 6 54 6 99 l0 83 53 6 c59 6 123 33 132 55 16 43 -38 80 -131 89 -49 5
-54 8 -54 29 0 22 4 24 55 24 l55 0 0 39 c0 67 -14 71 -236 71 l-193 0 -21
-27z m42 -88 c-2 -56 0 -85 7 -85 7 0 11 31 11 85 l0 85 130 0 130 0 0 -64 0
-63 -78 -5 c-50 -3 -94 -12 -123 -25 -24 -12 -59 -23 -76 -25 -30 -4 -33 -2
-33 23 0 15 6 29 13 32 10 3 10 9 0 26 -22 36 -11 101 17 101 3 0 4 -38 2 -85z
m73 -168 c28 -15 63 -22 122 -25 73 -4 83 -7 83 -23 0 -12 -7 -19 -20 -19 -26
0 -26 -22 1 -38 18 -12 21 -20 16 -55 -6 -45 -27 -67 -64 -67 -30 0 -63 34
-63 65 0 25 0 25 -96 25 -84 0 -95 2 -90 16 3 9 6 46 6 83 l0 68 33 -4 c17 -3
50 -14 72 -26z m55 -176 c0 -11 3 -26 6 -35 5 -14 -8 -16 -107 -16 -119 0
-149 10 -149 52 0 16 10 18 125 18 117 0 125 -1 125 -19z"/>
</g>
</svg>
